<svg width="30" height="30" viewBox="0 0 30 30" fill="none" xmlns="http://www.w3.org/2000/svg">
<circle cx="15" cy="15" r="15" fill="white"/>
<path d="M12.7417 16.0751L8.33334 20.4917V19.1667C8.33334 18.9457 8.24554 18.7338 8.08926 18.5775C7.93298 18.4212 7.72102 18.3334 7.50001 18.3334C7.27899 18.3334 7.06703 18.4212 6.91075 18.5775C6.75447 18.7338 6.66667 18.9457 6.66667 19.1667V22.5001C6.66799 22.609 6.69064 22.7166 6.73334 22.8167C6.8179 23.0204 6.97971 23.1822 7.18334 23.2667C7.28352 23.3094 7.39111 23.3321 7.50001 23.3334H10.8333C11.0544 23.3334 11.2663 23.2456 11.4226 23.0893C11.5789 22.9331 11.6667 22.7211 11.6667 22.5001C11.6667 22.2791 11.5789 22.0671 11.4226 21.9108C11.2663 21.7545 11.0544 21.6667 10.8333 21.6667H9.50834L13.925 17.2584C14.0819 17.1015 14.1701 16.8887 14.1701 16.6667C14.1701 16.4448 14.0819 16.232 13.925 16.0751C13.7681 15.9182 13.5553 15.83 13.3333 15.83C13.1114 15.83 12.8986 15.9182 12.7417 16.0751V16.0751ZM9.50834 8.33341H10.8333C11.0544 8.33341 11.2663 8.24562 11.4226 8.08934C11.5789 7.93306 11.6667 7.7211 11.6667 7.50008C11.6667 7.27907 11.5789 7.06711 11.4226 6.91083C11.2663 6.75455 11.0544 6.66675 10.8333 6.66675H7.50001C7.39111 6.66806 7.28352 6.69071 7.18334 6.73341C6.97971 6.81798 6.8179 6.97979 6.73334 7.18341C6.69064 7.2836 6.66799 7.39118 6.66667 7.50008V10.8334C6.66667 11.0544 6.75447 11.2664 6.91075 11.4227C7.06703 11.579 7.27899 11.6667 7.50001 11.6667C7.72102 11.6667 7.93298 11.579 8.08926 11.4227C8.24554 11.2664 8.33334 11.0544 8.33334 10.8334V9.50841L12.7417 13.9251C12.8191 14.0032 12.9113 14.0652 13.0129 14.1075C13.1144 14.1498 13.2233 14.1716 13.3333 14.1716C13.4433 14.1716 13.5523 14.1498 13.6538 14.1075C13.7554 14.0652 13.8475 14.0032 13.925 13.9251C14.0031 13.8476 14.0651 13.7554 14.1074 13.6539C14.1497 13.5523 14.1715 13.4434 14.1715 13.3334C14.1715 13.2234 14.1497 13.1145 14.1074 13.0129C14.0651 12.9114 14.0031 12.8192 13.925 12.7417L9.50834 8.33341ZM22.5 18.3334C22.279 18.3334 22.067 18.4212 21.9107 18.5775C21.7545 18.7338 21.6667 18.9457 21.6667 19.1667V20.4917L17.2583 16.0751C17.1014 15.9182 16.8886 15.83 16.6667 15.83C16.4448 15.83 16.2319 15.9182 16.075 16.0751C15.9181 16.232 15.8299 16.4448 15.8299 16.6667C15.8299 16.8887 15.9181 17.1015 16.075 17.2584L20.4917 21.6667H19.1667C18.9457 21.6667 18.7337 21.7545 18.5774 21.9108C18.4211 22.0671 18.3333 22.2791 18.3333 22.5001C18.3333 22.7211 18.4211 22.9331 18.5774 23.0893C18.7337 23.2456 18.9457 23.3334 19.1667 23.3334H22.5C22.6089 23.3321 22.7165 23.3094 22.8167 23.2667C23.0203 23.1822 23.1821 23.0204 23.2667 22.8167C23.3094 22.7166 23.332 22.609 23.3333 22.5001V19.1667C23.3333 18.9457 23.2455 18.7338 23.0893 18.5775C22.933 18.4212 22.721 18.3334 22.5 18.3334ZM23.2667 7.18341C23.1821 6.97979 23.0203 6.81798 22.8167 6.73341C22.7165 6.69071 22.6089 6.66806 22.5 6.66675H19.1667C18.9457 6.66675 18.7337 6.75455 18.5774 6.91083C18.4211 7.06711 18.3333 7.27907 18.3333 7.50008C18.3333 7.7211 18.4211 7.93306 18.5774 8.08934C18.7337 8.24562 18.9457 8.33341 19.1667 8.33341H20.4917L16.075 12.7417C15.9969 12.8192 15.9349 12.9114 15.8926 13.0129C15.8503 13.1145 15.8285 13.2234 15.8285 13.3334C15.8285 13.4434 15.8503 13.5523 15.8926 13.6539C15.9349 13.7554 15.9969 13.8476 16.075 13.9251C16.1525 14.0032 16.2446 14.0652 16.3462 14.1075C16.4477 14.1498 16.5567 14.1716 16.6667 14.1716C16.7767 14.1716 16.8856 14.1498 16.9872 14.1075C17.0887 14.0652 17.1809 14.0032 17.2583 13.9251L21.6667 9.50841V10.8334C21.6667 11.0544 21.7545 11.2664 21.9107 11.4227C22.067 11.579 22.279 11.6667 22.5 11.6667C22.721 11.6667 22.933 11.579 23.0893 11.4227C23.2455 11.2664 23.3333 11.0544 23.3333 10.8334V7.50008C23.332 7.39118 23.3094 7.2836 23.2667 7.18341V7.18341Z" fill="black"/>
</svg>
